<?xml version="1.0" encoding="UTF-8" standalone="no"?>
<!DOCTYPE svg PUBLIC "-//W3C//DTD SVG 1.1//EN" "http://www.w3.org/Graphics/SVG/1.1/DTD/svg11.dtd">
<svg width="100%" height="100%" viewBox="0 0 1080 1080" version="1.1" xmlns="http://www.w3.org/2000/svg" xmlns:xlink="http://www.w3.org/1999/xlink" xml:space="preserve" xmlns:serif="http://www.serif.com/" style="fill-rule:evenodd;clip-rule:evenodd;stroke-linejoin:round;stroke-miterlimit:2;">
    <path d="M64.232,1017.42L64.231,1017.42C63.269,1017.42 62.377,1016.92 61.872,1016.1C61.368,1015.28 61.324,1014.26 61.756,1013.4C93.054,951.179 478.433,184.986 533.474,75.556C534.714,73.09 537.239,71.534 540,71.534C542.761,71.534 545.286,73.09 546.526,75.556C602.264,186.373 996.764,970.698 1019.26,1015.43C1019.48,1015.85 1019.45,1016.36 1019.2,1016.77C1018.95,1017.17 1018.51,1017.42 1018.03,1017.42C1018.03,1017.42 1018.03,1017.42 1018.03,1017.42C1016.55,1017.42 1015.09,1017.03 1013.81,1016.28C989.718,1002.3 749.431,862.881 620.614,788.137C570.763,759.212 509.237,759.212 459.386,788.137C323.672,866.883 64.232,1017.42 64.232,1017.42ZM540.434,448.661C593.316,448.661 636.25,491.594 636.25,544.476C636.25,597.358 593.316,640.292 540.434,640.292C487.552,640.292 444.619,597.358 444.619,544.476C444.619,491.594 487.552,448.661 540.434,448.661Z" style="fill:rgb(120,198,163);"/>
</svg>
